<?xml version="1.0" encoding="UTF-8"?>
<svg width="24px" height="24px" viewBox="0 0 24 24" version="1.1" xmlns="http://www.w3.org/2000/svg" xmlns:xlink="http://www.w3.org/1999/xlink">
    <title>edit / hide</title>
    <defs>
        <rect id="path-1" x="0" y="0" width="24" height="24"></rect>
    </defs>
    <g id="Symbols" stroke="none" stroke-width="1" fill="none" fill-rule="evenodd">
        <g id="edit-/-hide">
            <mask id="mask-2" fill="white">
                <use xlink:href="#path-1"></use>
            </mask>
            <g id="edit-/-hide-(Background/Mask)"></g>
            <path d="M4.41246176,3.00177002 L21.3813,19.9706078 L21.3830528,19.9688549 L21.3847771,19.9705791 L19.9705639,21.3847923 L16.6137238,18.0279522 C15.3568201,18.6142025 13.8332224,19.0000172 12,19.0000172 C4.40799665,19.0000172 2.12631801,12.3830166 2.10443617,12.3160172 L2,12.0000172 L2.10543073,11.6840172 C2.11862564,11.6416912 3.03404117,8.9854393 5.62047315,7.03470182 L3,4.41423035 L4.41246176,3.00177002 L4.41246176,3.00177002 Z M15.0866957,16.5009232 L13.2894764,14.7037048 C12.8975992,14.8933678 12.4598732,15.0000172 12,15.0000172 C10.3579998,15.0000172 9,13.6420174 9,12.0000172 C9,11.540144 9.1066494,11.102417 9.29631138,10.7105398 L7.03632164,8.45055008 C5.26898026,9.66594315 4.41537142,11.3097782 4.11657,12.0000172 C4.61587381,13.1540165 6.67773962,17.0000172 12,17.0000172 C13.1840086,17.0000172 14.2066774,16.8096619 15.0866957,16.5009232 L15.0866957,16.5009232 Z M12,5.00001681 C19.592001,5.00001681 21.8736801,11.6170158 21.8955631,11.6840172 L22,12.0000172 L21.8945675,12.3160172 C21.8842735,12.3490391 21.3248024,13.9731436 19.8510571,15.6119385 L18.4593925,14.220274 C19.2457695,13.3296251 19.6858673,12.4563866 19.8834286,12.0000172 C19.3841248,10.8460164 17.322258,7.00001669 12,7.00001669 C11.7475252,7.00001669 11.502387,7.00867224 11.2644043,7.02528524 L9.50021839,5.26109958 C10.2610941,5.0945375 11.0926189,5.00001681 12,5.00001681 Z" fill="#2E3A59" mask="url(#mask-2)"></path>
        </g>
    </g>
</svg>